<?xml version="1.0" encoding="UTF-8" standalone="no"?>
<!DOCTYPE svg PUBLIC "-//W3C//DTD SVG 1.1//EN"
 "http://www.w3.org/Graphics/SVG/1.1/DTD/svg11.dtd">
<!-- Generated by graphviz version 2.38.0 (20140413.2041)
 -->
<!-- Title: G Pages: 1 -->
<svg width="1004pt" height="1196pt"
 viewBox="0.00 0.00 1003.91 1196.30" xmlns="http://www.w3.org/2000/svg" xmlns:xlink="http://www.w3.org/1999/xlink">
<g id="graph0" class="graph" transform="scale(1 1) rotate(0) translate(4 1192.3)">
<title>G</title>
<polygon fill="white" stroke="none" points="-4,4 -4,-1192.3 999.91,-1192.3 999.91,4 -4,4"/>
<g id="clust1" class="cluster"><title>cluster_Global</title>
<path fill="none" stroke="gray" d="M499.577,-206C499.577,-206 975.91,-206 975.91,-206 981.91,-206 987.91,-212 987.91,-218 987.91,-218 987.91,-1085 987.91,-1085 987.91,-1091 981.91,-1097 975.91,-1097 975.91,-1097 499.577,-1097 499.577,-1097 493.577,-1097 487.577,-1091 487.577,-1085 487.577,-1085 487.577,-218 487.577,-218 487.577,-212 493.577,-206 499.577,-206"/>
<text text-anchor="middle" x="737.743" y="-1084.2" font-family="Times,serif" font-size="11.00" fill="gray">Global</text>
</g>
<g id="clust2" class="cluster"><title>cluster_\Gpupo</title>
<path fill="none" stroke="gray" d="M507.577,-214C507.577,-214 967.91,-214 967.91,-214 973.91,-214 979.91,-220 979.91,-226 979.91,-226 979.91,-1058 979.91,-1058 979.91,-1064 973.91,-1070 967.91,-1070 967.91,-1070 507.577,-1070 507.577,-1070 501.577,-1070 495.577,-1064 495.577,-1058 495.577,-1058 495.577,-226 495.577,-226 495.577,-220 501.577,-214 507.577,-214"/>
<text text-anchor="middle" x="737.743" y="-1057.2" font-family="Times,serif" font-size="11.00" fill="gray">Gpupo</text>
</g>
<g id="clust3" class="cluster"><title>cluster_\Gpupo\SteloSdk</title>
<path fill="none" stroke="gray" d="M515.577,-222C515.577,-222 959.91,-222 959.91,-222 965.91,-222 971.91,-228 971.91,-234 971.91,-234 971.91,-1031 971.91,-1031 971.91,-1037 965.91,-1043 959.91,-1043 959.91,-1043 515.577,-1043 515.577,-1043 509.577,-1043 503.577,-1037 503.577,-1031 503.577,-1031 503.577,-234 503.577,-234 503.577,-228 509.577,-222 515.577,-222"/>
<text text-anchor="middle" x="737.743" y="-1030.2" font-family="Times,serif" font-size="11.00" fill="gray">SteloSdk</text>
</g>
<g id="clust4" class="cluster"><title>cluster_\Gpupo\SteloSdk\Order</title>
<path fill="none" stroke="gray" d="M523.577,-488C523.577,-488 951.91,-488 951.91,-488 957.91,-488 963.91,-494 963.91,-500 963.91,-500 963.91,-1004 963.91,-1004 963.91,-1010 957.91,-1016 951.91,-1016 951.91,-1016 523.577,-1016 523.577,-1016 517.577,-1016 511.577,-1010 511.577,-1004 511.577,-1004 511.577,-500 511.577,-500 511.577,-494 517.577,-488 523.577,-488"/>
<text text-anchor="middle" x="737.743" y="-1003.2" font-family="Times,serif" font-size="11.00" fill="gray">Order</text>
</g>
<g id="clust5" class="cluster"><title>cluster_\Gpupo\SteloSdk\Order\Cart</title>
<path fill="none" stroke="gray" d="M867.401,-864C867.401,-864 913.401,-864 913.401,-864 919.401,-864 925.401,-870 925.401,-876 925.401,-876 925.401,-977 925.401,-977 925.401,-983 919.401,-989 913.401,-989 913.401,-989 867.401,-989 867.401,-989 861.401,-989 855.401,-983 855.401,-977 855.401,-977 855.401,-876 855.401,-876 855.401,-870 861.401,-864 867.401,-864"/>
<text text-anchor="middle" x="890.401" y="-976.2" font-family="Times,serif" font-size="11.00" fill="gray">Cart</text>
</g>
<g id="clust6" class="cluster"><title>cluster_\Gpupo\SteloSdk\Order\Customer</title>
<path fill="none" stroke="gray" d="M531.577,-596C531.577,-596 943.91,-596 943.91,-596 949.91,-596 955.91,-602 955.91,-608 955.91,-608 955.91,-844 955.91,-844 955.91,-850 949.91,-856 943.91,-856 943.91,-856 531.577,-856 531.577,-856 525.577,-856 519.577,-850 519.577,-844 519.577,-844 519.577,-608 519.577,-608 519.577,-602 525.577,-596 531.577,-596"/>
<text text-anchor="middle" x="737.743" y="-843.2" font-family="Times,serif" font-size="11.00" fill="gray">Customer</text>
</g>
<g id="clust7" class="cluster"><title>cluster_\Gpupo\SteloSdk\Order\Customer\Phone</title>
<path fill="none" stroke="gray" d="M867.401,-704C867.401,-704 913.401,-704 913.401,-704 919.401,-704 925.401,-710 925.401,-716 925.401,-716 925.401,-817 925.401,-817 925.401,-823 919.401,-829 913.401,-829 913.401,-829 867.401,-829 867.401,-829 861.401,-829 855.401,-823 855.401,-817 855.401,-817 855.401,-716 855.401,-716 855.401,-710 861.401,-704 867.401,-704"/>
<text text-anchor="middle" x="890.401" y="-816.2" font-family="Times,serif" font-size="11.00" fill="gray">Phone</text>
</g>
<g id="clust8" class="cluster"><title>cluster_\Gpupo\SteloSdk\Transaction</title>
<path fill="none" stroke="gray" d="M850.096,-355C850.096,-355 930.707,-355 930.707,-355 936.707,-355 942.707,-361 942.707,-367 942.707,-367 942.707,-468 942.707,-468 942.707,-474 936.707,-480 930.707,-480 930.707,-480 850.096,-480 850.096,-480 844.096,-480 838.096,-474 838.096,-468 838.096,-468 838.096,-367 838.096,-367 838.096,-361 844.096,-355 850.096,-355"/>
<text text-anchor="middle" x="890.401" y="-467.2" font-family="Times,serif" font-size="11.00" fill="gray">Transaction</text>
</g>
<g id="clust9" class="cluster"><title>cluster_\Gpupo\SteloSdk\Client</title>
<path fill="none" stroke="gray" d="M866.598,-276C866.598,-276 914.205,-276 914.205,-276 920.205,-276 926.205,-282 926.205,-288 926.205,-288 926.205,-335 926.205,-335 926.205,-341 920.205,-347 914.205,-347 914.205,-347 866.598,-347 866.598,-347 860.598,-347 854.598,-341 854.598,-335 854.598,-335 854.598,-288 854.598,-288 854.598,-282 860.598,-276 866.598,-276"/>
<text text-anchor="middle" x="890.401" y="-334.2" font-family="Times,serif" font-size="11.00" fill="gray">Client</text>
</g>
<!-- \\Gpupo\\SteloSdk\\Order\\Cart\\Cart -->
<g id="node1" class="node"><title>\\Gpupo\\SteloSdk\\Order\\Cart\\Cart</title>
<polygon fill="none" stroke="black" points="917.401,-908 863.401,-908 863.401,-872 917.401,-872 917.401,-908"/>
<text text-anchor="middle" x="890.401" y="-886.7" font-family="Courier,monospace" font-size="11.00">Cart</text>
</g>
<!-- \\Gpupo\\CommonSdk\\Entity\\CollectionAbstract -->
<g id="node14" class="node"><title>\\Gpupo\\CommonSdk\\Entity\\CollectionAbstract</title>
<ellipse fill="none" stroke="black" cx="581.785" cy="-1123" rx="179.217" ry="18"/>
<text text-anchor="middle" x="581.785" y="-1118.8" font-family="Times,serif" font-size="14.00" fill="gray">\Gpupo\CommonSdk\Entity\CollectionAbstract</text>
</g>
<!-- \\Gpupo\\SteloSdk\\Order\\Cart\\Cart&#45;&gt;\\Gpupo\\CommonSdk\\Entity\\CollectionAbstract -->
<g id="edge1" class="edge"><title>\\Gpupo\\SteloSdk\\Order\\Cart\\Cart&#45;&gt;\\Gpupo\\CommonSdk\\Entity\\CollectionAbstract</title>
<path fill="none" stroke="black" d="M863.138,-898.553C852.82,-902.87 841.429,-908.936 832.893,-917 784.6,-962.625 810.249,-1003.53 760.893,-1048 732.536,-1073.55 694.207,-1091.21 660.369,-1102.93"/>
<polygon fill="none" stroke="black" points="658.868,-1099.75 650.494,-1106.24 661.088,-1106.38 658.868,-1099.75"/>
</g>
<!-- \\Gpupo\\SteloSdk\\Order\\Cart\\Item -->
<g id="node2" class="node"><title>\\Gpupo\\SteloSdk\\Order\\Cart\\Item</title>
<polygon fill="none" stroke="black" points="917.401,-962 863.401,-962 863.401,-926 917.401,-926 917.401,-962"/>
<text text-anchor="middle" x="890.401" y="-940.7" font-family="Courier,monospace" font-size="11.00">Item</text>
</g>
<!-- \\Gpupo\\CommonSdk\\Entity\\EntityAbstract -->
<g id="node15" class="node"><title>\\Gpupo\\CommonSdk\\Entity\\EntityAbstract</title>
<ellipse fill="none" stroke="black" cx="165.338" cy="-1034" rx="163.766" ry="18"/>
<text text-anchor="middle" x="165.338" y="-1029.8" font-family="Times,serif" font-size="14.00" fill="gray">\Gpupo\CommonSdk\Entity\EntityAbstract</text>
</g>
<!-- \\Gpupo\\SteloSdk\\Order\\Cart\\Item&#45;&gt;\\Gpupo\\CommonSdk\\Entity\\EntityAbstract -->
<g id="edge11" class="edge"><title>\\Gpupo\\SteloSdk\\Order\\Cart\\Item&#45;&gt;\\Gpupo\\CommonSdk\\Entity\\EntityAbstract</title>
<path fill="none" stroke="black" d="M884.599,-962.117C872.316,-1004.31 835.35,-1108.69 760.893,-1150 570.72,-1255.51 299.825,-1114.87 202.713,-1056.9"/>
<polygon fill="none" stroke="black" points="204.505,-1053.9 194.134,-1051.73 200.888,-1059.89 204.505,-1053.9"/>
</g>
<!-- \\Gpupo\\CommonSdk\\Entity\\EntityInterface -->
<g id="node16" class="node"><title>\\Gpupo\\CommonSdk\\Entity\\EntityInterface</title>
<ellipse fill="none" stroke="black" cx="165.338" cy="-573" rx="165.176" ry="18"/>
<text text-anchor="middle" x="165.338" y="-568.8" font-family="Times,serif" font-size="14.00" fill="gray">\Gpupo\CommonSdk\Entity\EntityInterface</text>
</g>
<!-- \\Gpupo\\SteloSdk\\Order\\Cart\\Item&#45;&gt;\\Gpupo\\CommonSdk\\Entity\\EntityInterface -->
<g id="edge12" class="edge"><title>\\Gpupo\\SteloSdk\\Order\\Cart\\Item&#45;&gt;\\Gpupo\\CommonSdk\\Entity\\EntityInterface</title>
<path fill="none" stroke="black" stroke-dasharray="1,5" d="M863.359,-937.141C852.444,-933.006 840.538,-926.618 832.893,-917 740.842,-801.178 843.711,-714.595 760.893,-592 707.183,-512.493 677.987,-481.952 582.785,-470"/>
</g>
<!-- \\Gpupo\\SteloSdk\\Order\\Customer\\Phone\\Item -->
<g id="node3" class="node"><title>\\Gpupo\\SteloSdk\\Order\\Customer\\Phone\\Item</title>
<polygon fill="none" stroke="black" points="917.401,-748 863.401,-748 863.401,-712 917.401,-712 917.401,-748"/>
<text text-anchor="middle" x="890.401" y="-726.7" font-family="Courier,monospace" font-size="11.00">Item</text>
</g>
<!-- \\Gpupo\\SteloSdk\\Order\\Customer\\Phone\\Item&#45;&gt;\\Gpupo\\CommonSdk\\Entity\\EntityAbstract -->
<g id="edge7" class="edge"><title>\\Gpupo\\SteloSdk\\Order\\Customer\\Phone\\Item&#45;&gt;\\Gpupo\\CommonSdk\\Entity\\EntityAbstract</title>
<path fill="none" stroke="black" d="M863.275,-739.147C853.095,-743.525 841.767,-749.477 832.893,-757 790.291,-793.12 797.027,-817.41 760.893,-860 689.3,-944.386 680.426,-981.915 582.785,-1034"/>
</g>
<!-- \\Gpupo\\SteloSdk\\Order\\Customer\\Phone\\Item&#45;&gt;\\Gpupo\\CommonSdk\\Entity\\EntityInterface -->
<g id="edge8" class="edge"><title>\\Gpupo\\SteloSdk\\Order\\Customer\\Phone\\Item&#45;&gt;\\Gpupo\\CommonSdk\\Entity\\EntityInterface</title>
<path fill="none" stroke="black" stroke-dasharray="1,5" d="M863.348,-723.729C853.062,-720.317 841.639,-715.266 832.893,-708 786.222,-669.222 802.822,-635.863 760.893,-592 694.593,-522.642 677.987,-481.952 582.785,-470"/>
</g>
<!-- \\Gpupo\\SteloSdk\\Order\\Customer\\Phone\\Phone -->
<g id="node4" class="node"><title>\\Gpupo\\SteloSdk\\Order\\Customer\\Phone\\Phone</title>
<polygon fill="none" stroke="black" points="917.401,-802 863.401,-802 863.401,-766 917.401,-766 917.401,-802"/>
<text text-anchor="middle" x="890.401" y="-780.7" font-family="Courier,monospace" font-size="11.00">Phone</text>
</g>
<!-- \\Gpupo\\SteloSdk\\Order\\Customer\\Phone\\Phone&#45;&gt;\\Gpupo\\CommonSdk\\Entity\\CollectionAbstract -->
<g id="edge21" class="edge"><title>\\Gpupo\\SteloSdk\\Order\\Customer\\Phone\\Phone&#45;&gt;\\Gpupo\\CommonSdk\\Entity\\CollectionAbstract</title>
<path fill="none" stroke="black" d="M873.724,-802.081C861.439,-816.904 844.535,-838.819 832.893,-860 789.798,-938.411 823.115,-983.703 760.893,-1048 735.411,-1074.33 699.252,-1091.85 666.166,-1103.28"/>
<polygon fill="none" stroke="black" points="664.865,-1100.02 656.471,-1106.49 667.065,-1106.67 664.865,-1100.02"/>
</g>
<!-- \\Gpupo\\SteloSdk\\Order\\Customer\\ShippingAddress -->
<g id="node5" class="node"><title>\\Gpupo\\SteloSdk\\Order\\Customer\\ShippingAddress</title>
<polygon fill="none" stroke="black" points="947.918,-694 832.885,-694 832.885,-658 947.918,-658 947.918,-694"/>
<text text-anchor="middle" x="890.401" y="-672.7" font-family="Courier,monospace" font-size="11.00">ShippingAddress</text>
</g>
<!-- \\Gpupo\\SteloSdk\\Order\\Customer\\BillingAddress -->
<g id="node7" class="node"><title>\\Gpupo\\SteloSdk\\Order\\Customer\\BillingAddress</title>
<polygon fill="none" stroke="black" points="636.201,-694 527.369,-694 527.369,-658 636.201,-658 636.201,-694"/>
<text text-anchor="middle" x="581.785" y="-672.7" font-family="Courier,monospace" font-size="11.00">BillingAddress</text>
</g>
<!-- \\Gpupo\\SteloSdk\\Order\\Customer\\ShippingAddress&#45;&gt;\\Gpupo\\SteloSdk\\Order\\Customer\\BillingAddress -->
<g id="edge2" class="edge"><title>\\Gpupo\\SteloSdk\\Order\\Customer\\ShippingAddress&#45;&gt;\\Gpupo\\SteloSdk\\Order\\Customer\\BillingAddress</title>
<path fill="none" stroke="black" d="M832.806,-676C780.055,-676 701.484,-676 646.542,-676"/>
<polygon fill="none" stroke="black" points="646.227,-672.5 636.227,-676 646.227,-679.5 646.227,-672.5"/>
</g>
<!-- \\Gpupo\\SteloSdk\\Order\\Customer\\Customer -->
<g id="node6" class="node"><title>\\Gpupo\\SteloSdk\\Order\\Customer\\Customer</title>
<polygon fill="none" stroke="black" points="924.71,-640 856.093,-640 856.093,-604 924.71,-604 924.71,-640"/>
<text text-anchor="middle" x="890.401" y="-618.7" font-family="Courier,monospace" font-size="11.00">Customer</text>
</g>
<!-- \\Gpupo\\SteloSdk\\Order\\Customer\\Customer&#45;&gt;\\Gpupo\\CommonSdk\\Entity\\EntityAbstract -->
<g id="edge16" class="edge"><title>\\Gpupo\\SteloSdk\\Order\\Customer\\Customer&#45;&gt;\\Gpupo\\CommonSdk\\Entity\\EntityAbstract</title>
<path fill="none" stroke="black" d="M855.961,-632.663C847.524,-636.674 839.108,-642.013 832.893,-649 767.041,-723.038 813.775,-776.204 760.893,-860 701.833,-953.587 680.426,-981.915 582.785,-1034"/>
</g>
<!-- \\Gpupo\\SteloSdk\\Order\\Customer\\Customer&#45;&gt;\\Gpupo\\CommonSdk\\Entity\\EntityInterface -->
<g id="edge17" class="edge"><title>\\Gpupo\\SteloSdk\\Order\\Customer\\Customer&#45;&gt;\\Gpupo\\CommonSdk\\Entity\\EntityInterface</title>
<path fill="none" stroke="black" stroke-dasharray="1,5" d="M855.985,-609.679C848.332,-606.668 840.278,-603.345 832.893,-600 718.776,-548.31 707.088,-485.605 582.785,-470"/>
</g>
<!-- \\Gpupo\\SteloSdk\\Order\\Customer\\BillingAddress&#45;&gt;\\Gpupo\\CommonSdk\\Entity\\EntityAbstract -->
<g id="edge18" class="edge"><title>\\Gpupo\\SteloSdk\\Order\\Customer\\BillingAddress&#45;&gt;\\Gpupo\\CommonSdk\\Entity\\EntityAbstract</title>
<path fill="none" stroke="black" d="M559.663,-694.245C490.928,-753.618 273.555,-941.386 195.008,-1009.24"/>
<polygon fill="none" stroke="black" points="192.698,-1006.61 187.418,-1015.79 197.273,-1011.9 192.698,-1006.61"/>
</g>
<!-- \\Gpupo\\SteloSdk\\Order\\Customer\\BillingAddress&#45;&gt;\\Gpupo\\CommonSdk\\Entity\\EntityInterface -->
<g id="edge19" class="edge"><title>\\Gpupo\\SteloSdk\\Order\\Customer\\BillingAddress&#45;&gt;\\Gpupo\\CommonSdk\\Entity\\EntityInterface</title>
<path fill="none" stroke="black" stroke-dasharray="1,5" d="M527.452,-662.745C455.078,-644.759 325.329,-612.513 242.656,-591.967"/>
<polygon fill="none" stroke="black" points="243.363,-588.536 232.814,-589.521 241.675,-595.329 243.363,-588.536"/>
</g>
<!-- \\Gpupo\\SteloSdk\\Order\\Order -->
<g id="node8" class="node"><title>\\Gpupo\\SteloSdk\\Order\\Order</title>
<polygon fill="none" stroke="black" points="917.401,-586 863.401,-586 863.401,-550 917.401,-550 917.401,-586"/>
<text text-anchor="middle" x="890.401" y="-564.7" font-family="Courier,monospace" font-size="11.00">Order</text>
</g>
<!-- \\Gpupo\\SteloSdk\\Order\\Order&#45;&gt;\\Gpupo\\CommonSdk\\Entity\\EntityAbstract -->
<g id="edge3" class="edge"><title>\\Gpupo\\SteloSdk\\Order\\Order&#45;&gt;\\Gpupo\\CommonSdk\\Entity\\EntityAbstract</title>
<path fill="none" stroke="black" d="M863.313,-573.688C852.522,-577.273 840.727,-582.992 832.893,-592 751.957,-685.064 823.218,-753.571 760.893,-860 704.971,-955.495 680.426,-981.915 582.785,-1034"/>
</g>
<!-- \\Gpupo\\SteloSdk\\Order\\Order&#45;&gt;\\Gpupo\\CommonSdk\\Entity\\EntityInterface -->
<g id="edge4" class="edge"><title>\\Gpupo\\SteloSdk\\Order\\Order&#45;&gt;\\Gpupo\\CommonSdk\\Entity\\EntityInterface</title>
<path fill="none" stroke="black" stroke-dasharray="1,5" d="M863.088,-555.916C810.974,-532.821 690.357,-483.505 582.785,-470"/>
</g>
<!-- \\Gpupo\\SteloSdk\\Order\\Payment -->
<g id="node9" class="node"><title>\\Gpupo\\SteloSdk\\Order\\Payment</title>
<polygon fill="none" stroke="black" points="921.609,-532 859.194,-532 859.194,-496 921.609,-496 921.609,-532"/>
<text text-anchor="middle" x="890.401" y="-510.7" font-family="Courier,monospace" font-size="11.00">Payment</text>
</g>
<!-- \\Gpupo\\SteloSdk\\Order\\Payment&#45;&gt;\\Gpupo\\CommonSdk\\Entity\\EntityAbstract -->
<g id="edge9" class="edge"><title>\\Gpupo\\SteloSdk\\Order\\Payment&#45;&gt;\\Gpupo\\CommonSdk\\Entity\\EntityAbstract</title>
<path fill="none" stroke="black" d="M859.285,-522.516C849.579,-526.642 839.607,-532.587 832.893,-541 742.236,-654.605 831.787,-733.118 760.893,-860 706.915,-956.608 680.426,-981.915 582.785,-1034"/>
</g>
<!-- \\Gpupo\\SteloSdk\\Order\\Payment&#45;&gt;\\Gpupo\\CommonSdk\\Entity\\EntityInterface -->
<g id="edge10" class="edge"><title>\\Gpupo\\SteloSdk\\Order\\Payment&#45;&gt;\\Gpupo\\CommonSdk\\Entity\\EntityInterface</title>
<path fill="none" stroke="black" stroke-dasharray="1,5" d="M858.986,-509.272C803.957,-500.8 684.166,-482.727 582.785,-470"/>
</g>
<!-- \\Gpupo\\SteloSdk\\Transaction\\Transaction -->
<g id="node10" class="node"><title>\\Gpupo\\SteloSdk\\Transaction\\Transaction</title>
<polygon fill="none" stroke="black" points="934.514,-453 846.289,-453 846.289,-417 934.514,-417 934.514,-453"/>
<text text-anchor="middle" x="890.401" y="-431.7" font-family="Courier,monospace" font-size="11.00">Transaction</text>
</g>
<!-- \\Gpupo\\SteloSdk\\Transaction\\Transaction&#45;&gt;\\Gpupo\\CommonSdk\\Entity\\EntityAbstract -->
<g id="edge5" class="edge"><title>\\Gpupo\\SteloSdk\\Transaction\\Transaction&#45;&gt;\\Gpupo\\CommonSdk\\Entity\\EntityAbstract</title>
<path fill="none" stroke="black" d="M861.601,-453.012C851.047,-461.23 839.896,-471.849 832.893,-484 747.935,-631.418 841.439,-710.125 760.893,-860 708.506,-957.479 680.426,-981.915 582.785,-1034"/>
<path fill="none" stroke="black" d="M580.785,-1034C471.933,-1092.07 322.975,-1072.35 236.465,-1053"/>
<polygon fill="none" stroke="black" points="237.019,-1049.53 226.489,-1050.7 235.451,-1056.35 237.019,-1049.53"/>
</g>
<!-- \\Gpupo\\SteloSdk\\Transaction\\Transaction&#45;&gt;\\Gpupo\\CommonSdk\\Entity\\EntityInterface -->
<g id="edge6" class="edge"><title>\\Gpupo\\SteloSdk\\Transaction\\Transaction&#45;&gt;\\Gpupo\\CommonSdk\\Entity\\EntityInterface</title>
<path fill="none" stroke="black" stroke-dasharray="1,5" d="M846.204,-446.438C786.81,-460.679 676.613,-481.779 582.785,-470"/>
<path fill="none" stroke="black" stroke-dasharray="1,5" d="M580.785,-470C443.043,-452.708 285.079,-515.813 210.161,-550.958"/>
<polygon fill="none" stroke="black" points="208.542,-547.852 201.013,-555.306 211.547,-554.175 208.542,-547.852"/>
</g>
<!-- \\Gpupo\\SteloSdk\\Transaction\\Manager -->
<g id="node11" class="node"><title>\\Gpupo\\SteloSdk\\Transaction\\Manager</title>
<polygon fill="none" stroke="black" points="921.609,-399 859.194,-399 859.194,-363 921.609,-363 921.609,-399"/>
<text text-anchor="middle" x="890.401" y="-377.7" font-family="Courier,monospace" font-size="11.00">Manager</text>
</g>
<!-- \\Gpupo\\CommonSdk\\Entity\\ManagerAbstract -->
<g id="node17" class="node"><title>\\Gpupo\\CommonSdk\\Entity\\ManagerAbstract</title>
<ellipse fill="none" stroke="black" cx="581.785" cy="-180" rx="173.888" ry="18"/>
<text text-anchor="middle" x="581.785" y="-175.8" font-family="Times,serif" font-size="14.00" fill="gray">\Gpupo\CommonSdk\Entity\ManagerAbstract</text>
</g>
<!-- \\Gpupo\\SteloSdk\\Transaction\\Manager&#45;&gt;\\Gpupo\\CommonSdk\\Entity\\ManagerAbstract -->
<g id="edge13" class="edge"><title>\\Gpupo\\SteloSdk\\Transaction\\Manager&#45;&gt;\\Gpupo\\CommonSdk\\Entity\\ManagerAbstract</title>
<path fill="none" stroke="black" d="M859.141,-365.732C850.548,-361.183 841.257,-356.058 832.893,-351 752.385,-302.315 662.28,-238.183 615.292,-203.957"/>
<polygon fill="none" stroke="black" points="617.172,-200.996 607.032,-197.925 613.044,-206.649 617.172,-200.996"/>
</g>
<!-- \\Gpupo\\SteloSdk\\Client\\Client -->
<g id="node12" class="node"><title>\\Gpupo\\SteloSdk\\Client\\Client</title>
<polygon fill="none" stroke="black" points="918.009,-320 862.794,-320 862.794,-284 918.009,-284 918.009,-320"/>
<text text-anchor="middle" x="890.401" y="-298.7" font-family="Courier,monospace" font-size="11.00">Client</text>
</g>
<!-- \\Gpupo\\CommonSdk\\Client\\ClientAbstract -->
<g id="node18" class="node"><title>\\Gpupo\\CommonSdk\\Client\\ClientAbstract</title>
<ellipse fill="none" stroke="black" cx="581.785" cy="-126" rx="163.766" ry="18"/>
<text text-anchor="middle" x="581.785" y="-121.8" font-family="Times,serif" font-size="14.00" fill="gray">\Gpupo\CommonSdk\Client\ClientAbstract</text>
</g>
<!-- \\Gpupo\\SteloSdk\\Client\\Client&#45;&gt;\\Gpupo\\CommonSdk\\Client\\ClientAbstract -->
<g id="edge14" class="edge"><title>\\Gpupo\\SteloSdk\\Client\\Client&#45;&gt;\\Gpupo\\CommonSdk\\Client\\ClientAbstract</title>
<path fill="none" stroke="black" d="M862.628,-295.712C852.472,-292.327 841.333,-287.301 832.893,-280 783.822,-237.551 814.344,-189.783 760.893,-153 752.4,-147.155 743.141,-142.368 733.455,-138.463"/>
<polygon fill="none" stroke="black" points="734.64,-135.17 724.047,-134.984 732.212,-141.735 734.64,-135.17"/>
</g>
<!-- \\Gpupo\\CommonSdk\\Client\\ClientInterface -->
<g id="node19" class="node"><title>\\Gpupo\\CommonSdk\\Client\\ClientInterface</title>
<ellipse fill="none" stroke="black" cx="581.785" cy="-72" rx="165.176" ry="18"/>
<text text-anchor="middle" x="581.785" y="-67.8" font-family="Times,serif" font-size="14.00" fill="gray">\Gpupo\CommonSdk\Client\ClientInterface</text>
</g>
<!-- \\Gpupo\\SteloSdk\\Client\\Client&#45;&gt;\\Gpupo\\CommonSdk\\Client\\ClientInterface -->
<g id="edge15" class="edge"><title>\\Gpupo\\SteloSdk\\Client\\Client&#45;&gt;\\Gpupo\\CommonSdk\\Client\\ClientInterface</title>
<path fill="none" stroke="black" stroke-dasharray="1,5" d="M862.67,-296.475C852.281,-293.177 840.963,-288.01 832.893,-280 771.451,-219.007 828.682,-152.852 760.893,-99 753.61,-93.2141 745.615,-88.4081 737.172,-84.4325"/>
<polygon fill="none" stroke="black" points="738.417,-81.1584 727.847,-80.4374 735.66,-87.5927 738.417,-81.1584"/>
</g>
<!-- \\Gpupo\\SteloSdk\\Factory -->
<g id="node13" class="node"><title>\\Gpupo\\SteloSdk\\Factory</title>
<polygon fill="none" stroke="black" points="921.609,-266 859.194,-266 859.194,-230 921.609,-230 921.609,-266"/>
<text text-anchor="middle" x="890.401" y="-244.7" font-family="Courier,monospace" font-size="11.00">Factory</text>
</g>
<!-- \\Gpupo\\CommonSdk\\FactoryAbstract -->
<g id="node20" class="node"><title>\\Gpupo\\CommonSdk\\FactoryAbstract</title>
<ellipse fill="none" stroke="black" cx="581.785" cy="-18" rx="145.415" ry="18"/>
<text text-anchor="middle" x="581.785" y="-13.8" font-family="Times,serif" font-size="14.00" fill="gray">\Gpupo\CommonSdk\FactoryAbstract</text>
</g>
<!-- \\Gpupo\\SteloSdk\\Factory&#45;&gt;\\Gpupo\\CommonSdk\\FactoryAbstract -->
<g id="edge20" class="edge"><title>\\Gpupo\\SteloSdk\\Factory&#45;&gt;\\Gpupo\\CommonSdk\\FactoryAbstract</title>
<path fill="none" stroke="black" d="M883.774,-229.96C870.084,-189.347 830.919,-90.7226 760.893,-45 749.938,-37.8467 737.806,-32.3102 725.176,-28.0533"/>
<polygon fill="none" stroke="black" points="726.019,-24.6506 715.431,-25.0419 723.952,-31.3385 726.019,-24.6506"/>
</g>
</g>
</svg>
